<mxfile host="Electron" modified="2024-06-21T16:10:08.456Z" agent="Mozilla/5.0 (Windows NT 10.0; Win64; x64) AppleWebKit/537.36 (KHTML, like Gecko) draw.io/24.5.3 Chrome/124.0.6367.207 Electron/30.0.6 Safari/537.36" etag="ANcV8vVez8enLf7-eWaw" version="24.5.3" type="device">
  <diagram name="Page-1" id="lNEIkKs2HnlJU3ut6Gme">
    <mxGraphModel dx="2072" dy="1230" grid="1" gridSize="10" guides="1" tooltips="1" connect="1" arrows="1" fold="1" page="1" pageScale="1" pageWidth="800" pageHeight="300" math="0" shadow="0">
      <root>
        <mxCell id="0" />
        <mxCell id="1" parent="0" />
        <mxCell id="CbNo64k_p9R4UyqKt7yJ-7" value="" style="rounded=0;whiteSpace=wrap;html=1;fillColor=none;dashed=1;" vertex="1" parent="1">
          <mxGeometry x="66" y="65" width="155" height="170" as="geometry" />
        </mxCell>
        <mxCell id="CbNo64k_p9R4UyqKt7yJ-1" value="" style="shape=cylinder3;whiteSpace=wrap;html=1;boundedLbl=1;backgroundOutline=1;size=15;" vertex="1" parent="1">
          <mxGeometry x="93.5" y="105" width="60" height="80" as="geometry" />
        </mxCell>
        <mxCell id="CbNo64k_p9R4UyqKt7yJ-2" value="" style="shape=cylinder3;whiteSpace=wrap;html=1;boundedLbl=1;backgroundOutline=1;size=15;" vertex="1" parent="1">
          <mxGeometry x="103.5" y="115" width="60" height="80" as="geometry" />
        </mxCell>
        <mxCell id="CbNo64k_p9R4UyqKt7yJ-3" value="" style="shape=cylinder3;whiteSpace=wrap;html=1;boundedLbl=1;backgroundOutline=1;size=15;" vertex="1" parent="1">
          <mxGeometry x="113.5" y="125" width="60" height="80" as="geometry" />
        </mxCell>
        <mxCell id="CbNo64k_p9R4UyqKt7yJ-4" value="*.csv" style="shape=cylinder3;whiteSpace=wrap;html=1;boundedLbl=1;backgroundOutline=1;size=15;" vertex="1" parent="1">
          <mxGeometry x="123.5" y="135" width="60" height="80" as="geometry" />
        </mxCell>
        <mxCell id="CbNo64k_p9R4UyqKt7yJ-5" value="standardize_qcew_data.ipynb" style="shape=process;whiteSpace=wrap;html=1;backgroundOutline=1;" vertex="1" parent="1">
          <mxGeometry x="303.5" y="110" width="210" height="80" as="geometry" />
        </mxCell>
        <mxCell id="CbNo64k_p9R4UyqKt7yJ-6" value="./output_data/&lt;div&gt;qcew_annual_wide.csv&lt;br&gt;&lt;/div&gt;" style="shape=cylinder3;whiteSpace=wrap;html=1;boundedLbl=1;backgroundOutline=1;size=15;" vertex="1" parent="1">
          <mxGeometry x="583.5" y="87.5" width="150" height="125" as="geometry" />
        </mxCell>
        <mxCell id="CbNo64k_p9R4UyqKt7yJ-8" value="./input_data/" style="text;html=1;align=center;verticalAlign=middle;whiteSpace=wrap;rounded=0;" vertex="1" parent="1">
          <mxGeometry x="121" y="65" width="60" height="30" as="geometry" />
        </mxCell>
        <mxCell id="CbNo64k_p9R4UyqKt7yJ-9" value="" style="edgeStyle=elbowEdgeStyle;elbow=horizontal;endArrow=classic;html=1;curved=0;rounded=0;endSize=8;startSize=8;exitX=1;exitY=0.5;exitDx=0;exitDy=0;entryX=0;entryY=0.5;entryDx=0;entryDy=0;" edge="1" parent="1" source="CbNo64k_p9R4UyqKt7yJ-7" target="CbNo64k_p9R4UyqKt7yJ-5">
          <mxGeometry width="50" height="50" relative="1" as="geometry">
            <mxPoint x="353.5" y="165" as="sourcePoint" />
            <mxPoint x="283.5" y="185" as="targetPoint" />
          </mxGeometry>
        </mxCell>
        <mxCell id="CbNo64k_p9R4UyqKt7yJ-10" value="" style="edgeStyle=elbowEdgeStyle;elbow=horizontal;endArrow=classic;html=1;curved=0;rounded=0;endSize=8;startSize=8;entryX=0;entryY=0.5;entryDx=0;entryDy=0;entryPerimeter=0;exitX=1;exitY=0.5;exitDx=0;exitDy=0;" edge="1" parent="1" source="CbNo64k_p9R4UyqKt7yJ-5" target="CbNo64k_p9R4UyqKt7yJ-6">
          <mxGeometry width="50" height="50" relative="1" as="geometry">
            <mxPoint x="553.5" y="255" as="sourcePoint" />
            <mxPoint x="313.5" y="160" as="targetPoint" />
          </mxGeometry>
        </mxCell>
      </root>
    </mxGraphModel>
  </diagram>
</mxfile>
